<svg width="108" height="32" viewBox="0 0 108 32" fill="none" xmlns="http://www.w3.org/2000/svg">
<path d="M104.158 32H3.7832C1.6976 32 0 30.2976 0 28.2136V3.7808C0 1.696 1.6976 0 3.7832 0H104.158C106.242 0 108 1.696 108 3.7808V28.2136C108 30.2976 106.242 32 104.158 32Z" fill="#A6A6A6"/>
<path d="M107.226 28.2144C107.226 29.9072 105.854 31.2784 104.158 31.2784H3.78324C2.08804 31.2784 0.712036 29.9072 0.712036 28.2144V3.78C0.712036 2.088 2.08804 0.711998 3.78324 0.711998H104.158C105.854 0.711998 107.225 2.088 107.225 3.78L107.226 28.2144Z" fill="black"/>
<path d="M24.1024 15.8272C24.0792 13.2488 26.2136 11.9944 26.3112 11.936C25.1024 10.1736 23.2288 9.93279 22.5704 9.91359C20.9968 9.74799 19.4704 10.8552 18.6688 10.8552C17.8512 10.8552 16.6168 9.92959 15.2864 9.95679C13.5744 9.98319 11.9728 10.9744 11.0944 12.5136C9.2816 15.652 10.6336 20.264 12.3704 22.8008C13.2392 24.0432 14.2544 25.4304 15.5832 25.3816C16.8832 25.328 17.3688 24.5528 18.9376 24.5528C20.492 24.5528 20.948 25.3816 22.3032 25.3504C23.6984 25.328 24.5768 24.1024 25.4152 22.8488C26.4192 21.4248 26.8224 20.0224 26.8384 19.9504C26.8056 19.9392 24.1288 18.9176 24.1024 15.8272Z" fill="white"/>
<path d="M21.5424 8.24479C22.2416 7.37039 22.72 6.18079 22.5872 4.97359C21.5752 5.01839 20.3096 5.67359 19.5808 6.52879C18.936 7.28239 18.36 8.51759 18.5088 9.67919C19.6456 9.76399 20.8128 9.10559 21.5424 8.24479Z" fill="white"/>
<path d="M42.916 25.2032H41.0992L40.104 22.076H36.6448L35.6968 25.2032H33.928L37.3552 14.5568H39.472L42.916 25.2032ZM39.804 20.764L38.904 17.984C38.8088 17.7 38.6304 17.0312 38.3672 15.9784H38.3352C38.2304 16.4312 38.0616 17.1 37.8296 17.984L36.9456 20.764H39.804Z" fill="white"/>
<path d="M51.7296 21.2704C51.7296 22.576 51.3768 23.608 50.6712 24.3656C50.0392 25.04 49.2544 25.3768 48.3176 25.3768C47.3064 25.3768 46.58 25.0136 46.1376 24.2872H46.1056V28.3312H44.4V20.0536C44.4 19.2328 44.3784 18.3904 44.3368 17.5264H45.8368L45.932 18.7432H45.964C46.5328 17.8264 47.396 17.3688 48.5544 17.3688C49.46 17.3688 50.216 17.7264 50.8208 18.4424C51.4272 19.1592 51.7296 20.1016 51.7296 21.2704ZM49.992 21.3328C49.992 20.5856 49.824 19.9696 49.4864 19.4848C49.1176 18.9792 48.6224 18.7264 48.0016 18.7264C47.5808 18.7264 47.1984 18.8672 46.8568 19.1448C46.5144 19.4248 46.2904 19.7904 46.1856 20.2432C46.1328 20.4544 46.1064 20.6272 46.1064 20.7632V22.0432C46.1064 22.6016 46.2776 23.0728 46.62 23.4576C46.9624 23.8424 47.4072 24.0344 47.9544 24.0344C48.5968 24.0344 49.0968 23.7864 49.4544 23.292C49.8128 22.7968 49.992 22.144 49.992 21.3328Z" fill="white"/>
<path d="M60.5592 21.2704C60.5592 22.576 60.2064 23.608 59.5 24.3656C58.8688 25.04 58.084 25.3768 57.1472 25.3768C56.136 25.3768 55.4096 25.0136 54.968 24.2872H54.936V28.3312H53.2304V20.0536C53.2304 19.2328 53.2088 18.3904 53.1672 17.5264H54.6672L54.7624 18.7432H54.7944C55.3624 17.8264 56.2256 17.3688 57.3848 17.3688C58.2896 17.3688 59.0456 17.7264 59.652 18.4424C60.256 19.1592 60.5592 20.1016 60.5592 21.2704ZM58.8216 21.3328C58.8216 20.5856 58.6528 19.9696 58.3152 19.4848C57.9464 18.9792 57.4528 18.7264 56.8312 18.7264C56.4096 18.7264 56.028 18.8672 55.6856 19.1448C55.3432 19.4248 55.12 19.7904 55.0152 20.2432C54.9632 20.4544 54.936 20.6272 54.936 20.7632V22.0432C54.936 22.6016 55.1072 23.0728 55.448 23.4576C55.7904 23.8416 56.2352 24.0344 56.784 24.0344C57.4264 24.0344 57.9264 23.7864 58.284 23.292C58.6424 22.7968 58.8216 22.144 58.8216 21.3328Z" fill="white"/>
<path d="M70.4312 22.2176C70.4312 23.1232 70.1168 23.86 69.4856 24.4288C68.792 25.0504 67.8264 25.3608 66.5856 25.3608C65.44 25.3608 64.5216 25.14 63.8264 24.6976L64.2216 23.276C64.9704 23.7288 65.792 23.956 66.6872 23.956C67.3296 23.956 67.8296 23.8104 68.1888 23.5208C68.5464 23.2312 68.7248 22.8424 68.7248 22.3576C68.7248 21.9256 68.5776 21.5616 68.2824 21.2664C67.9888 20.9712 67.4984 20.6968 66.8136 20.4432C64.9496 19.748 64.0184 18.7296 64.0184 17.3904C64.0184 16.5152 64.3448 15.7976 64.9984 15.2392C65.6496 14.68 66.5184 14.4008 67.6048 14.4008C68.5736 14.4008 69.3784 14.5696 70.0208 14.9064L69.5944 16.2968C68.9944 15.9704 68.316 15.8072 67.5568 15.8072C66.9568 15.8072 66.488 15.9552 66.152 16.2496C65.868 16.5128 65.7256 16.8336 65.7256 17.2136C65.7256 17.6344 65.888 17.9824 66.2144 18.256C66.4984 18.5088 67.0144 18.7824 67.7632 19.0776C68.6792 19.4464 69.352 19.8776 69.7848 20.372C70.216 20.8648 70.4312 21.4816 70.4312 22.2176Z" fill="white"/>
<path d="M76.0703 18.8064H74.1903V22.5336C74.1903 23.4816 74.5215 23.9552 75.1855 23.9552C75.4903 23.9552 75.7431 23.9288 75.9431 23.876L75.9903 25.1712C75.6543 25.2968 75.2119 25.36 74.6639 25.36C73.9903 25.36 73.4639 25.1544 73.0839 24.744C72.7055 24.3328 72.5151 23.6432 72.5151 22.6744V18.8048H71.3951V17.5248H72.5151V16.1192L74.1903 15.6136V17.5248H76.0703V18.8064Z" fill="white"/>
<path d="M84.5528 21.3016C84.5528 22.4816 84.2152 23.4504 83.5416 24.208C82.8352 24.988 81.8976 25.3768 80.7288 25.3768C79.6024 25.3768 78.7056 25.0032 78.0368 24.256C77.368 23.5088 77.0336 22.5656 77.0336 21.4288C77.0336 20.2392 77.3776 19.2648 78.068 18.5072C78.7568 17.7488 79.6864 17.3696 80.8552 17.3696C81.9816 17.3696 82.888 17.7432 83.572 18.4912C84.2264 19.2168 84.5528 20.1536 84.5528 21.3016ZM82.7832 21.3568C82.7832 20.6488 82.632 20.0416 82.3256 19.5352C81.968 18.9224 81.4568 18.6168 80.7944 18.6168C80.1088 18.6168 79.588 18.9232 79.2304 19.5352C78.924 20.0424 78.7728 20.6592 78.7728 21.3888C78.7728 22.0968 78.924 22.704 79.2304 23.2096C79.5992 23.8224 80.1144 24.128 80.7792 24.128C81.4304 24.128 81.9416 23.816 82.3104 23.1936C82.6248 22.6776 82.7832 22.064 82.7832 21.3568Z" fill="white"/>
<path d="M90.0967 19.0264C89.9279 18.9952 89.7479 18.9792 89.5591 18.9792C88.9591 18.9792 88.4951 19.2056 88.1687 19.6592C87.8847 20.0592 87.7423 20.5648 87.7423 21.1752V25.2032H86.0375L86.0535 19.944C86.0535 19.0592 86.0319 18.2536 85.9895 17.5272H87.4751L87.5375 18.996H87.5847C87.7647 18.4912 88.0487 18.0848 88.4375 17.78C88.8175 17.5056 89.2279 17.3688 89.6703 17.3688C89.8279 17.3688 89.9703 17.38 90.0967 17.4V19.0264Z" fill="white"/>
<path d="M97.7249 21.0016C97.7249 21.3072 97.7049 21.5648 97.6625 21.7752H92.5457C92.5657 22.5336 92.8129 23.1136 93.2881 23.5136C93.7193 23.8712 94.2769 24.0504 94.9617 24.0504C95.7193 24.0504 96.4105 23.9296 97.0321 23.6872L97.2993 24.8712C96.5729 25.188 95.7153 25.3456 94.7257 25.3456C93.5353 25.3456 92.6009 24.9952 91.9209 24.2952C91.2425 23.5952 90.9025 22.6552 90.9025 21.476C90.9025 20.3184 91.2185 19.3544 91.8513 18.5856C92.5137 17.7648 93.4089 17.3544 94.5353 17.3544C95.6417 17.3544 96.4793 17.7648 97.0481 18.5856C97.4985 19.2376 97.7249 20.044 97.7249 21.0016ZM96.0985 20.5592C96.1097 20.0536 95.9985 19.6168 95.7673 19.248C95.4721 18.7736 95.0185 18.5368 94.4081 18.5368C93.8505 18.5368 93.3969 18.768 93.0505 19.232C92.7665 19.6008 92.5977 20.0432 92.5457 20.5584H96.0985V20.5592Z" fill="white"/>
<path d="M39.24 8.00719C39.24 8.94879 38.9576 9.65759 38.3936 10.1336C37.8712 10.5728 37.1288 10.7928 36.1672 10.7928C35.6904 10.7928 35.2824 10.772 34.9408 10.7304V5.58559C35.3864 5.51359 35.8664 5.47679 36.3848 5.47679C37.3008 5.47679 37.9912 5.67599 38.4568 6.07439C38.9784 6.52479 39.24 7.16879 39.24 8.00719ZM38.356 8.03039C38.356 7.41999 38.1944 6.95199 37.8712 6.62559C37.548 6.29999 37.076 6.13679 36.4544 6.13679C36.1904 6.13679 35.9656 6.15439 35.7792 6.19119V10.1024C35.8824 10.1184 36.0712 10.1256 36.3456 10.1256C36.9872 10.1256 37.4824 9.94719 37.8312 9.59039C38.18 9.23359 38.356 8.71359 38.356 8.03039Z" fill="white"/>
<path d="M43.9271 8.82959C43.9271 9.40959 43.7615 9.88479 43.4303 10.2576C43.0831 10.6408 42.6231 10.832 42.0487 10.832C41.4951 10.832 41.0543 10.6488 40.7255 10.2808C40.3975 9.91359 40.2335 9.45039 40.2335 8.89199C40.2335 8.30799 40.4023 7.82879 40.7415 7.45679C41.0807 7.08479 41.5367 6.89839 42.1111 6.89839C42.6647 6.89839 43.1095 7.08159 43.4463 7.44879C43.7663 7.80559 43.9271 8.26639 43.9271 8.82959ZM43.0575 8.85679C43.0575 8.50879 42.9823 8.21039 42.8327 7.96159C42.6567 7.66079 42.4063 7.51039 42.0807 7.51039C41.7439 7.51039 41.4879 7.66079 41.3119 7.96159C41.1615 8.21039 41.0871 8.51359 41.0871 8.87199C41.0871 9.21999 41.1623 9.51839 41.3119 9.76719C41.4935 10.068 41.7463 10.2184 42.0727 10.2184C42.3927 10.2184 42.6439 10.0656 42.8247 9.75919C42.9799 9.50559 43.0575 9.20479 43.0575 8.85679Z" fill="white"/>
<path d="M50.212 6.9752L49.032 10.7464H48.264L47.7752 9.1088C47.6512 8.7 47.5504 8.2936 47.472 7.8904H47.4568C47.384 8.3048 47.2832 8.7104 47.1536 9.1088L46.6344 10.7464H45.8576L44.748 6.9752H45.6096L46.036 8.768C46.1392 9.192 46.224 9.596 46.292 9.9784H46.3072C46.3696 9.6632 46.4728 9.2616 46.6184 8.776L47.1536 6.976H47.8368L48.3496 8.7376C48.4736 9.1672 48.5744 9.5808 48.652 9.9792H48.6752C48.732 9.5912 48.8176 9.1776 48.9312 8.7376L49.3888 6.976H50.212V6.9752Z" fill="white"/>
<path d="M54.5585 10.7464H53.7201V8.5864C53.7201 7.9208 53.4673 7.588 52.9601 7.588C52.7113 7.588 52.5105 7.6792 52.3545 7.8624C52.2001 8.0456 52.1217 8.2616 52.1217 8.5088V10.7456H51.2833V8.0528C51.2833 7.7216 51.2729 7.3624 51.2529 6.9736H51.9897L52.0289 7.5632H52.0521C52.1497 7.38 52.2953 7.2288 52.4865 7.108C52.7137 6.9672 52.9681 6.896 53.2465 6.896C53.5985 6.896 53.8913 7.0096 54.1241 7.2376C54.4137 7.5168 54.5585 7.9336 54.5585 8.4872V10.7464Z" fill="white"/>
<path d="M56.8703 10.7464H56.0327V5.2448H56.8703V10.7464Z" fill="white"/>
<path d="M61.8064 8.82959C61.8064 9.40959 61.6408 9.88479 61.3096 10.2576C60.9624 10.6408 60.5016 10.832 59.928 10.832C59.3736 10.832 58.9328 10.6488 58.6048 10.2808C58.2768 9.91359 58.1128 9.45039 58.1128 8.89199C58.1128 8.30799 58.2816 7.82879 58.6208 7.45679C58.96 7.08479 59.416 6.89839 59.9896 6.89839C60.544 6.89839 60.988 7.08159 61.3256 7.44879C61.6456 7.80559 61.8064 8.26639 61.8064 8.82959ZM60.936 8.85679C60.936 8.50879 60.8608 8.21039 60.7112 7.96159C60.536 7.66079 60.2848 7.51039 59.96 7.51039C59.6224 7.51039 59.3664 7.66079 59.1912 7.96159C59.0408 8.21039 58.9664 8.51359 58.9664 8.87199C58.9664 9.21999 59.0416 9.51839 59.1912 9.76719C59.3728 10.068 59.6256 10.2184 59.952 10.2184C60.272 10.2184 60.5224 10.0656 60.7032 9.75919C60.8592 9.50559 60.936 9.20479 60.936 8.85679Z" fill="white"/>
<path d="M65.8639 10.7464H65.1111L65.0487 10.312H65.0255C64.7679 10.6584 64.4007 10.832 63.9239 10.832C63.5679 10.832 63.2799 10.7176 63.0631 10.4904C62.8663 10.284 62.7679 10.0272 62.7679 9.72239C62.7679 9.26159 62.9599 8.91039 63.3463 8.66719C63.7319 8.42399 64.2743 8.30479 64.9727 8.31039V8.23999C64.9727 7.74319 64.7119 7.49519 64.1895 7.49519C63.8175 7.49519 63.4895 7.58879 63.2063 7.77439L63.0359 7.22399C63.3863 7.00719 63.8191 6.89839 64.3295 6.89839C65.3151 6.89839 65.8095 7.41839 65.8095 8.45839V9.84719C65.8095 10.224 65.8279 10.524 65.8639 10.7464ZM64.9935 9.45039V8.86879C64.0687 8.85279 63.6063 9.10639 63.6063 9.62879C63.6063 9.82559 63.6591 9.97279 63.7671 10.0712C63.8751 10.1696 64.0127 10.2184 64.1767 10.2184C64.3607 10.2184 64.5327 10.16 64.6895 10.044C64.8471 9.92719 64.9439 9.77919 64.9799 9.59759C64.9887 9.55679 64.9935 9.50719 64.9935 9.45039Z" fill="white"/>
<path d="M70.6279 10.7464H69.8839L69.8447 10.1408H69.8215C69.5839 10.6016 69.1791 10.832 68.6103 10.832C68.1559 10.832 67.7775 10.6536 67.4776 10.2968C67.1776 9.94 67.028 9.4768 67.028 8.908C67.028 8.2976 67.1904 7.8032 67.5168 7.4256C67.8328 7.0736 68.2199 6.8976 68.6807 6.8976C69.1871 6.8976 69.5415 7.068 69.7431 7.4096H69.7591V5.2448H70.5983V9.7304C70.5983 10.0976 70.6079 10.436 70.6279 10.7464ZM69.7591 9.156V8.5272C69.7591 8.4184 69.7511 8.3304 69.7359 8.2632C69.6887 8.0616 69.5871 7.892 69.4327 7.7552C69.2767 7.6184 69.0887 7.5496 68.8719 7.5496C68.5591 7.5496 68.3143 7.6736 68.1343 7.9224C67.9559 8.1712 67.8655 8.4888 67.8655 8.8768C67.8655 9.2496 67.9511 9.552 68.1231 9.7848C68.3047 10.0328 68.5495 10.1568 68.8559 10.1568C69.1311 10.1568 69.3511 10.0536 69.5183 9.8464C69.6799 9.6552 69.7591 9.4248 69.7591 9.156Z" fill="white"/>
<path d="M77.7983 8.82959C77.7983 9.40959 77.6327 9.88479 77.3015 10.2576C76.9543 10.6408 76.4951 10.832 75.9199 10.832C75.3671 10.832 74.9263 10.6488 74.5967 10.2808C74.2687 9.91359 74.1047 9.45039 74.1047 8.89199C74.1047 8.30799 74.2735 7.82879 74.6127 7.45679C74.9519 7.08479 75.4079 6.89839 75.9831 6.89839C76.5359 6.89839 76.9815 7.08159 77.3175 7.44879C77.6375 7.80559 77.7983 8.26639 77.7983 8.82959ZM76.9295 8.85679C76.9295 8.50879 76.8543 8.21039 76.7047 7.96159C76.5279 7.66079 76.2783 7.51039 75.9519 7.51039C75.6159 7.51039 75.3599 7.66079 75.1831 7.96159C75.0327 8.21039 74.9583 8.51359 74.9583 8.87199C74.9583 9.21999 75.0335 9.51839 75.1831 9.76719C75.3647 10.068 75.6175 10.2184 75.9439 10.2184C76.2639 10.2184 76.5159 10.0656 76.6967 9.75919C76.8511 9.50559 76.9295 9.20479 76.9295 8.85679Z" fill="white"/>
<path d="M82.3064 10.7464H81.4688V8.5864C81.4688 7.9208 81.216 7.588 80.708 7.588C80.4592 7.588 80.2584 7.6792 80.1032 7.8624C79.948 8.0456 79.8704 8.2616 79.8704 8.5088V10.7456H79.0312V8.0528C79.0312 7.7216 79.0216 7.3624 79.0016 6.9736H79.7376L79.7768 7.5632H79.8C79.8984 7.38 80.044 7.2288 80.2344 7.108C80.4624 6.9672 80.716 6.896 80.9952 6.896C81.3464 6.896 81.6392 7.0096 81.872 7.2376C82.1624 7.5168 82.3064 7.9336 82.3064 8.4872V10.7464Z" fill="white"/>
<path d="M87.9489 7.6032H87.0257V9.4352C87.0257 9.9008 87.1897 10.1336 87.5145 10.1336C87.6649 10.1336 87.7897 10.1208 87.8881 10.0944L87.9097 10.7304C87.7441 10.7928 87.5265 10.824 87.2585 10.824C86.9273 10.824 86.6697 10.7232 86.4833 10.5216C86.2961 10.32 86.2033 9.9808 86.2033 9.5048V7.6032H85.6521V6.9752H86.2033V6.284L87.0249 6.036V6.9744H87.9481V7.6032H87.9489Z" fill="white"/>
<path d="M92.3873 10.7464H91.5481V8.6024C91.5481 7.9264 91.2953 7.588 90.7889 7.588C90.4001 7.588 90.1345 7.784 89.9889 8.176C89.9641 8.2584 89.9497 8.3592 89.9497 8.4776V10.7456H89.1121V5.2448H89.9497V7.5176H89.9657C90.2297 7.104 90.6081 6.8976 91.0985 6.8976C91.4457 6.8976 91.7329 7.0112 91.9609 7.2392C92.2449 7.5232 92.3873 7.9456 92.3873 8.504V10.7464Z" fill="white"/>
<path d="M96.9656 8.6824C96.9656 8.8328 96.9544 8.9592 96.9344 9.0624H94.42C94.4312 9.4352 94.5512 9.7192 94.784 9.916C94.9968 10.092 95.2712 10.18 95.6072 10.18C95.9792 10.18 96.3184 10.1208 96.624 10.0016L96.7552 10.584C96.3976 10.7392 95.9768 10.8168 95.4896 10.8168C94.9056 10.8168 94.4456 10.6448 94.1128 10.3008C93.7784 9.9568 93.6128 9.4952 93.6128 8.916C93.6128 8.3472 93.7672 7.8736 94.0784 7.496C94.4032 7.0928 94.8424 6.8912 95.3968 6.8912C95.9392 6.8912 96.3512 7.0928 96.6296 7.496C96.8544 7.816 96.9656 8.212 96.9656 8.6824ZM96.1656 8.4656C96.172 8.2168 96.1168 8.0024 96.0032 7.8216C95.8576 7.5888 95.636 7.472 95.336 7.472C95.0624 7.472 94.8392 7.5856 94.6688 7.8136C94.5296 7.9952 94.4472 8.212 94.42 8.4656H96.1656Z" fill="white"/>
</svg>
