<svg width="40" height="40" viewBox="0 0 40 40" fill="none" xmlns="http://www.w3.org/2000/svg">
<path d="M1 6.25V31.25M1 36.875C1 37.3723 1.19754 37.8492 1.54917 38.2008C1.90081 38.5525 2.37772 38.75 2.875 38.75H21.625C22.1223 38.75 22.5992 38.5525 22.9508 38.2008C23.3025 37.8492 23.5 37.3723 23.5 36.875V31.25H1V36.875ZM23.5 3.125C23.5 2.62772 23.3025 2.15081 22.9508 1.79917C22.5992 1.44754 22.1223 1.25 21.625 1.25H2.875C2.37772 1.25 1.90081 1.44754 1.54917 1.79917C1.19754 2.15081 1 2.62772 1 3.125V6.25H23.5V3.125ZM23.5 31.25V6.25V31.25Z" stroke="white" stroke-linecap="round" stroke-linejoin="round"/>
<path d="M12.25 36.25C12.9404 36.25 13.5 35.6904 13.5 35C13.5 34.3096 12.9404 33.75 12.25 33.75C11.5596 33.75 11 34.3096 11 35C11 35.6904 11.5596 36.25 12.25 36.25Z" stroke="white" stroke-linecap="round" stroke-linejoin="round"/>
</svg>
