<svg width="110" height="32" viewBox="0 0 110 32" fill="none" xmlns="http://www.w3.org/2000/svg">
<path fill-rule="evenodd" clip-rule="evenodd" d="M105.924 32H4.07557C1.82935 32 0 30.1965 0 28V4C0 1.79551 1.82935 0 4.07557 0H105.924C108.169 0 110 1.79551 110 4V28C110 30.1965 108.169 32 105.924 32Z" fill="black"/>
<path fill-rule="evenodd" clip-rule="evenodd" d="M105.924 0.640399C107.808 0.640399 109.35 2.15062 109.35 4V28C109.35 29.8494 107.819 31.3596 105.924 31.3596H4.07557C2.19158 31.3596 0.649582 29.8494 0.649582 28V4C0.649582 2.15062 2.18146 0.640399 4.07557 0.640399H105.924ZM105.924 0H4.07557C1.82935 0 0 1.80349 0 4V28C0 30.2045 1.82935 32 4.07557 32H105.924C108.169 32 110 30.2045 110 28V4C110 1.80349 108.169 0 105.924 0Z" fill="#A6A6A6"/>
<path d="M57.9483 10.5855C57.2138 10.5855 56.5945 10.3322 56.1048 9.83342C55.6191 9.34864 55.348 8.68031 55.3601 7.99801C55.3601 7.26983 55.611 6.65337 56.1048 6.1646C56.5925 5.66584 57.2117 5.41248 57.9463 5.41248C58.6728 5.41248 59.292 5.66584 59.7898 6.1646C60.2836 6.66933 60.5345 7.28579 60.5345 7.99801C60.5264 8.72819 60.2755 9.34465 59.7898 9.83143C59.3021 10.3342 58.6829 10.5855 57.9483 10.5855ZM36.0912 10.5855C35.3728 10.5855 34.7495 10.3362 34.2396 9.8434C33.7337 9.35263 33.4767 8.73218 33.4767 8.00001C33.4767 7.26784 33.7337 6.64739 34.2396 6.15662C34.7394 5.66385 35.3627 5.41447 36.0912 5.41447C36.4474 5.41447 36.7934 5.4843 37.1253 5.62594C37.4511 5.7636 37.7162 5.95113 37.9125 6.18056L37.961 6.23841L37.4126 6.76908L37.356 6.70325C37.0464 6.34016 36.6315 6.1626 36.0831 6.1626C35.5934 6.1626 35.1664 6.33417 34.8143 6.67332C34.4602 7.01447 34.2801 7.46135 34.2801 8.002C34.2801 8.54265 34.4602 8.98953 34.8143 9.33068C35.1664 9.66983 35.5934 9.8414 36.0831 9.8414C36.6052 9.8414 37.0443 9.66983 37.3863 9.33068C37.5887 9.13118 37.7141 8.85188 37.7587 8.49876H36.0001V7.75263H38.5135L38.5236 7.82046C38.5418 7.94614 38.56 8.07582 38.56 8.19552C38.56 8.8838 38.3496 9.44041 37.9327 9.85138C37.4592 10.3382 36.8399 10.5855 36.0912 10.5855ZM65.1524 10.4798H64.3774L62.0037 6.73517L62.0239 7.40948V10.4778H61.2489V5.52021H62.1332L62.1575 5.55811L64.3895 9.08529L64.3693 8.41297V5.52021H65.1524V10.4798ZM52.1244 10.4798H51.3392V6.26634H49.9773V5.52021H53.4842V6.26634H52.1223V10.4798H52.1244ZM49.3378 10.4798H48.5547V5.52021H49.3378V10.4798ZM44.9365 10.4798H44.1533V6.26634H42.7914V5.52021H46.2983V6.26634H44.9365V10.4798ZM42.2956 10.4718H39.2926V5.52021H42.2956V6.26634H40.0777V7.62694H42.0791V8.36509H40.0777V9.72569H42.2956V10.4718ZM56.6795 9.32071C57.0296 9.66584 57.4546 9.83941 57.9483 9.83941C58.4563 9.83941 58.8711 9.66983 59.2171 9.32071C59.5612 8.98155 59.7352 8.53667 59.7352 8.00001C59.7352 7.46335 59.5612 7.01647 59.2192 6.67931C58.8691 6.33417 58.4421 6.16061 57.9504 6.16061C57.4424 6.16061 57.0276 6.33018 56.6836 6.67931C56.3396 7.01846 56.1655 7.46335 56.1655 8.00001C56.1655 8.53667 56.3375 8.98355 56.6795 9.32071Z" fill="white"/>
<path fill-rule="evenodd" clip-rule="evenodd" d="M55.2874 17.4045C53.3751 17.4045 51.825 18.8349 51.825 20.808C51.825 22.7631 53.3852 24.2114 55.2874 24.2114C57.1997 24.2114 58.7498 22.771 58.7498 20.808C58.7498 18.8349 57.1997 17.4045 55.2874 17.4045ZM55.2874 22.8628C54.2412 22.8628 53.3407 22.009 53.3407 20.8C53.3407 19.573 54.2432 18.7371 55.2874 18.7371C56.3336 18.7371 57.2341 19.573 57.2341 20.8C57.2361 22.0169 56.3336 22.8628 55.2874 22.8628ZM47.7332 17.4045C45.8209 17.4045 44.2708 18.8349 44.2708 20.808C44.2708 22.7631 45.831 24.2114 47.7332 24.2114C49.6455 24.2114 51.1956 22.771 51.1956 20.808C51.1956 18.8349 49.6435 17.4045 47.7332 17.4045ZM47.7332 22.8628C46.687 22.8628 45.7865 22.009 45.7865 20.8C45.7865 19.573 46.689 18.7371 47.7332 18.7371C48.7794 18.7371 49.6799 19.573 49.6799 20.8C49.6799 22.0169 48.7794 22.8628 47.7332 22.8628ZM38.7443 18.4439V19.8843H42.2512C42.144 20.6922 41.8728 21.2888 41.458 21.6977C40.944 22.2045 40.1507 22.7551 38.7524 22.7551C36.5972 22.7551 34.9115 21.0394 34.9115 18.9147C34.9115 16.79 36.5972 15.0743 38.7524 15.0743C39.916 15.0743 40.7639 15.5272 41.3932 16.1057L42.4293 15.0843C41.5551 14.2583 40.3915 13.6259 38.7605 13.6259C35.804 13.6259 33.323 16 33.323 18.9067C33.323 21.8214 35.8019 24.1875 38.7605 24.1875C40.3571 24.1875 41.5551 23.6728 42.5022 22.7032C43.4674 21.7516 43.773 20.409 43.773 19.3257C43.773 18.9885 43.7467 18.6853 43.692 18.4279H38.7423C38.7443 18.4259 38.7443 18.4439 38.7443 18.4439ZM75.5115 19.5651C75.2221 18.801 74.3479 17.3965 72.555 17.3965C70.7782 17.3965 69.301 18.775 69.301 20.8C69.301 22.7112 70.762 24.2035 72.727 24.2035C74.3054 24.2035 75.2241 23.2518 75.6025 22.6932L74.4309 21.9192C74.0423 22.4878 73.502 22.8608 72.7351 22.8608C71.96 22.8608 71.4177 22.5137 71.0575 21.8294L75.6734 19.9441C75.6734 19.9461 75.5115 19.5651 75.5115 19.5651ZM70.8045 20.7022C70.7681 19.3875 71.8406 18.7192 72.6076 18.7192C73.2126 18.7192 73.7165 19.0124 73.8885 19.4394L70.8045 20.7022ZM67.0548 24H68.5704V14.001H67.0548V24ZM64.5657 18.1606H64.5111C64.1691 17.7596 63.5195 17.3965 62.6898 17.3965C60.9677 17.3965 59.3812 18.8907 59.3812 20.81C59.3812 22.7212 60.9596 24.1975 62.6898 24.1975C63.5094 24.1975 64.1691 23.8324 64.5111 23.4234H64.5657V23.9122C64.5657 25.2109 63.8615 25.9112 62.7262 25.9112C61.7974 25.9112 61.2207 25.2528 60.9859 24.7022L59.6685 25.2449C60.047 26.1426 61.0567 27.2538 62.7242 27.2538C64.5009 27.2538 66.0065 26.2224 66.0065 23.7067V17.6H64.5738V18.1606C64.5758 18.1606 64.5657 18.1606 64.5657 18.1606ZM62.8254 22.8628C61.7792 22.8628 60.905 22.001 60.905 20.81C60.905 19.609 61.7792 18.7391 62.8254 18.7391C63.8615 18.7391 64.6649 19.6189 64.6649 20.81C64.675 22.001 63.8635 22.8628 62.8254 22.8628ZM82.6083 14.001H78.984V24H80.4997V20.2134H82.6103C84.2879 20.2134 85.9372 19.0144 85.9372 17.1112C85.9372 15.208 84.294 14.001 82.6083 14.001ZM82.6528 18.8169H80.4977V15.3855H82.6528C83.7881 15.3855 84.4296 16.3092 84.4296 17.1012C84.4296 17.8853 83.78 18.8169 82.6528 18.8169ZM92.0121 17.3865C90.9112 17.3865 89.776 17.8673 89.3065 18.9147L90.6502 19.4653C90.9396 18.9147 91.4698 18.7272 92.0303 18.7272C92.8155 18.7272 93.6087 19.19 93.6269 20.0159V20.1217C93.3558 19.9701 92.7608 19.7386 92.0485 19.7386C90.5976 19.7386 89.1264 20.5207 89.1264 21.987C89.1264 23.3296 90.3163 24.1915 91.6418 24.1915C92.6597 24.1915 93.2202 23.7386 93.5703 23.2139H93.6249V23.988H95.086V20.1576C95.086 18.374 93.7423 17.3865 92.0121 17.3865ZM91.8219 22.8628C91.3261 22.8628 90.632 22.6234 90.632 22.009C90.632 21.2349 91.4981 20.9416 92.2367 20.9416C92.9045 20.9416 93.2202 21.0833 93.6168 21.2788C93.5075 22.1765 92.7386 22.8548 91.8219 22.8628ZM100.416 17.6L98.6759 21.9371H98.6212L96.8182 17.6H95.1871L97.8927 23.6628L96.3507 27.0324H97.9292L102.092 17.6H100.416ZM86.7729 24H88.2886V14.001H86.7729V24Z" fill="white"/>
<path opacity="0.2" fill-rule="evenodd" clip-rule="evenodd" d="M21.9362 19.3057L10.1608 25.9013C9.5031 26.2744 8.91625 26.2484 8.53783 25.9093L8.4751 25.9711L8.53783 26.025C8.91625 26.3621 9.5031 26.3901 10.1608 26.017L22.0172 19.3776L21.9362 19.3057Z" fill="black"/>
<path opacity="0.12" fill-rule="evenodd" clip-rule="evenodd" d="M25.9752 17.0394L21.9259 19.3057L21.9988 19.3776L25.9651 17.1551C26.5337 16.8359 26.8129 16.417 26.8129 16C26.7785 16.383 26.4892 16.7461 25.9752 17.0394Z" fill="black"/>
<path opacity="0.25" fill-rule="evenodd" clip-rule="evenodd" d="M10.1524 6.09874L25.9751 14.9606C26.4891 15.2459 26.7785 15.6189 26.823 16C26.823 15.583 26.5438 15.1641 25.9751 14.8449L10.1524 5.98303C9.01718 5.34263 8.09644 5.87729 8.09644 7.1561V7.27181C8.09644 5.99101 9.01718 5.46632 10.1524 6.09874Z" fill="white"/>
<path d="M11.5917 6.28333L22.225 12.425L19.2 15.45L9.66672 6.00833C9.85005 6.00833 10.125 5.91666 10.3084 5.91666C10.7667 5.91666 11.225 6.00833 11.5917 6.28333ZM7.92505 23.7V8.3C7.92505 7.56666 8.29172 6.925 8.84172 6.46666L18.4667 16.0917L8.93338 25.625C8.29172 25.1667 7.92505 24.4333 7.92505 23.7ZM11.5917 25.8083C11.0417 26.0833 10.4 26.175 9.85005 26.0833L19.2 16.825L22.1334 19.7583L11.5917 25.8083ZM24.8834 18.1083L22.9584 19.2083L19.75 16.0917L22.9584 12.8833L24.7917 13.9833C25.525 14.4417 25.9834 15.175 25.9834 16.0917C26.075 16.825 25.6167 17.65 24.8834 18.1083Z" fill="white"/>
</svg>
