<svg width="33" height="38" viewBox="0 0 33 38" fill="none" xmlns="http://www.w3.org/2000/svg">
<path fill-rule="evenodd" clip-rule="evenodd" d="M12.965 33.1749C12.4523 33.2365 11.509 33.3597 11.427 33.3597H3.68066L8.89956 8.83398C11.632 14.1775 14.3543 19.5877 17.0662 24.998C17.577 26.1566 17.874 27.3983 17.9429 28.663C17.9429 31.3681 16.0512 32.677 12.9445 33.1698L12.965 33.1749Z" fill="white"/>
<path fill-rule="evenodd" clip-rule="evenodd" d="M24.0951 28.3857C22.511 25.3059 20.932 22.2261 19.3786 19.1462C18.5071 17.4369 17.6407 15.666 16.7692 14.0132C16.4923 13.4229 16.1796 12.8942 15.9335 12.3347C15.4681 11.2452 15.1641 10.0935 15.0312 8.91604V8.21282C15.0496 7.88674 15.1011 7.5634 15.185 7.2478C16.1181 4.29116 19.5632 4.01398 21.6138 3.85999H29.3294L24.0951 28.3857Z" fill="white"/>
</svg>
