<svg width="318" height="373" viewBox="0 0 318 373" fill="none" xmlns="http://www.w3.org/2000/svg">
<g opacity="0.35">
<mask id="mask0" mask-type="alpha" maskUnits="userSpaceOnUse" x="0" y="0" width="337" height="449">
<rect x="336.406" width="448.905" height="336.406" transform="rotate(90 336.406 0)" fill="white"/>
</mask>
<g mask="url(#mask0)">
<path fill-rule="evenodd" clip-rule="evenodd" d="M150.542 126.255C150.542 164.838 181.794 196.115 220.346 196.115C258.898 196.115 290.15 164.838 290.15 126.255C290.15 87.6715 258.898 56.3937 220.346 56.3937C181.794 56.3937 150.542 87.6715 150.542 126.255Z" fill="#BFCBBA"/>
<rect width="165.004" height="22.475" transform="matrix(0.50099 0.865453 -0.865101 0.501599 220.166 267.209)" fill="#DC4618"/>
<path fill-rule="evenodd" clip-rule="evenodd" d="M85.1298 244.996L156.188 187.225L146.949 173.302L74.0696 231.108L85.1298 244.996Z" fill="#DC4618"/>
<path fill-rule="evenodd" clip-rule="evenodd" d="M60.7511 48.0393L110.559 116.27L119.571 110.003L74.8787 40.8419L60.7511 48.0393Z" fill="#EAE8E3"/>
<rect width="45.6244" height="7.07152" transform="matrix(-0.829772 0.558102 -0.557478 -0.830192 104.006 171.685)" fill="#60BEBF"/>
<path fill-rule="evenodd" clip-rule="evenodd" d="M142.412 231.917L174.703 205.377L168.203 194.077L132.908 219.938L142.412 231.917Z" fill="#3A8EAA"/>
<path fill-rule="evenodd" clip-rule="evenodd" d="M384.712 418.756L192.339 143.512L174.62 157.082L355.32 442.442L384.712 418.756Z" fill="#2A3E4C"/>
<path fill-rule="evenodd" clip-rule="evenodd" d="M171.18 160.869L223.224 256.115L210.88 262.974L159.346 168.866L171.18 160.869Z" fill="#E5AB17"/>
<rect width="106.668" height="14.1243" transform="matrix(0.643037 0.765835 -0.765321 0.643649 25.8828 31.9845)" fill="#EAE8E3"/>
<path fill-rule="evenodd" clip-rule="evenodd" d="M81.4408 88.616L108.617 122.673L101.499 129.147L74.3224 95.0896L81.4408 88.616Z" fill="#E5AB17"/>
<path d="M209.521 313.206L261.342 407.673L254.247 411.305L202.425 316.837L209.521 313.206Z" fill="#28203D"/>
<path fill-rule="evenodd" clip-rule="evenodd" d="M268.82 321.256L323.797 412.518L316.972 416.636L261.995 325.374L268.82 321.256Z" fill="#BFCBBA"/>
<rect width="106.571" height="2.01459" transform="matrix(0.455029 0.890477 -0.890177 0.455615 187.534 298.282)" fill="#849C9B"/>
<rect width="265.836" height="5.9985" transform="matrix(-0.782826 0.622241 -0.621622 -0.783317 274.171 67.019)" fill="#28203D"/>
<path fill-rule="evenodd" clip-rule="evenodd" d="M119.682 175.257L254.444 64.044L243.119 46.6319L105.291 156.071L119.682 175.257Z" fill="#849C9B"/>
<path fill-rule="evenodd" clip-rule="evenodd" d="M131.322 248.956C132.739 254.871 138.654 258.523 144.533 257.111C150.412 255.7 154.028 249.761 152.611 243.845C151.193 237.93 145.278 234.279 139.399 235.69C133.52 237.101 129.904 243.041 131.322 248.956Z" fill="#849C9B"/>
<path fill-rule="evenodd" clip-rule="evenodd" d="M209.505 138.338C210.615 142.972 215.25 145.833 219.856 144.727C224.462 143.622 227.295 138.968 226.184 134.334C225.073 129.699 220.439 126.838 215.833 127.944C211.227 129.05 208.394 133.703 209.505 138.338Z" fill="#DC4618"/>
<path fill-rule="evenodd" clip-rule="evenodd" d="M125.631 91.4651C126.737 96.0772 131.349 98.9241 135.932 97.8237C140.516 96.7234 143.335 92.0926 142.23 87.4804C141.125 82.8683 136.513 80.0214 131.929 81.1218C127.346 82.2221 124.526 86.853 125.631 91.4651Z" fill="#BFCBBA"/>
<path d="M200.396 142.563L254.558 221.068L255.521 220.402L201.359 141.898L200.396 142.563Z" fill="#28203D"/>
<path d="M80.8564 301.703L33.2927 342.305L34.5661 343.799L82.1299 303.197L80.8564 301.703Z" fill="#28203D"/>
<path d="M316.61 46.117L265.922 86.7413L266.654 87.6555L317.342 47.0312L316.61 46.117Z" fill="#28203D"/>
<path d="M71.2612 73.5411L29.5654 21.9324L28.6554 22.6688L70.3512 74.2775L71.2612 73.5411Z" fill="#28203D"/>
</g>
</g>
</svg>
